<svg id="_x31__x2C_5" enable-background="new 0 0 24 24" height="512" viewBox="0 0 24 24" width="512" xmlns="http://www.w3.org/2000/svg"><path d="m23.25 16.75h-22.5c-.414 0-.75-.336-.75-.75v-5.25c0-1.517 1.233-2.75 2.75-2.75h18.5c1.517 0 2.75 1.233 2.75 2.75v5.25c0 .414-.336.75-.75.75zm-21.75-1.5h21v-4.5c0-.689-.561-1.25-1.25-1.25h-18.5c-.689 0-1.25.561-1.25 1.25z"/><path d="m21.25 24h-18.5c-1.517 0-2.75-1.233-2.75-2.75v-5.25c0-.414.336-.75.75-.75h22.5c.414 0 .75.336.75.75v5.25c0 1.517-1.233 2.75-2.75 2.75zm-19.75-7.25v4.5c0 .689.561 1.25 1.25 1.25h18.5c.689 0 1.25-.561 1.25-1.25v-4.5z"/><path d="m17.5 6c-.145 0-.29-.042-.416-.126l-2.25-1.5c-.345-.23-.438-.695-.208-1.04.23-.344.695-.438 1.04-.208l1.834 1.223 1.834-1.223c.344-.231.81-.137 1.04.208s.137.81-.208 1.04l-2.25 1.5c-.126.084-.271.126-.416.126z"/><path d="m21.25 9.5h-18.5c-1.517 0-2.75-1.233-2.75-2.75v-4c0-1.517 1.233-2.75 2.75-2.75h18.5c1.517 0 2.75 1.233 2.75 2.75v4c0 1.517-1.233 2.75-2.75 2.75zm-18.5-8c-.689 0-1.25.561-1.25 1.25v4c0 .689.561 1.25 1.25 1.25h18.5c.689 0 1.25-.561 1.25-1.25v-4c0-.689-.561-1.25-1.25-1.25z"/><path d="m12.25 9.5c-.414 0-.75-.336-.75-.75v-8c0-.414.336-.75.75-.75s.75.336.75.75v8c0 .414-.336.75-.75.75z"/><path d="m19 13c-.551 0-1-.449-1-1s.449-1 1-1 1 .449 1 1-.449 1-1 1z"/><path d="m19 21c-.551 0-1-.449-1-1s.449-1 1-1 1 .449 1 1-.449 1-1 1z"/></svg>