<svg id="Capa_1" enable-background="new 0 0 512 512" height="512" viewBox="0 0 512 512" width="512" xmlns="http://www.w3.org/2000/svg"><g><g><path d="m258.773 181.506h-191.984c-4.142 0-7.499 3.358-7.499 7.499 0 4.142 3.357 7.499 7.499 7.499h191.985c4.142 0 7.499-3.358 7.499-7.499s-3.357-7.499-7.5-7.499z"/><path d="m258.773 234.202h-191.984c-4.142 0-7.499 3.358-7.499 7.499s3.357 7.499 7.499 7.499h191.985c4.142 0 7.499-3.358 7.499-7.499s-3.357-7.499-7.5-7.499z"/><path d="m258.773 286.897h-191.984c-4.142 0-7.499 3.358-7.499 7.499s3.357 7.499 7.499 7.499h191.985c4.142 0 7.499-3.358 7.499-7.499s-3.357-7.499-7.5-7.499z"/><path d="m266.273 347.093c0-4.142-3.357-7.499-7.499-7.499h-191.985c-4.142 0-7.499 3.358-7.499 7.499s3.357 7.499 7.499 7.499h191.985c4.142 0 7.499-3.357 7.499-7.499z"/><path d="m66.789 416.821c-4.142 0-7.499 3.358-7.499 7.499s3.357 7.499 7.499 7.499h96.238c4.142 0 7.499-3.358 7.499-7.499s-3.357-7.499-7.499-7.499z"/><path d="m345.194 92.853v-24.334c0-9.27-7.541-16.812-16.812-16.812h-153.967c-9.27 0-16.811 7.542-16.811 16.812v24.334c0 9.27 7.541 16.811 16.811 16.811h13.002c4.142 0 7.499-3.358 7.499-7.499 0-4.142-3.357-7.499-7.499-7.499h-13.002c-.999 0-1.812-.813-1.812-1.812v-24.335c0-.999.813-1.813 1.812-1.813h153.967c1 0 1.813.813 1.813 1.813v24.334c0 .999-.813 1.812-1.813 1.812h-105.905c-4.142 0-7.499 3.358-7.499 7.499 0 4.142 3.357 7.499 7.499 7.499h105.906c9.27.002 16.811-7.54 16.811-16.81z"/><path d="m401.268 457.296c-4.142 0-7.499 3.358-7.499 7.499v10.099c0 12.189-9.917 22.107-22.108 22.107h-331.762c-12.189 0-22.107-9.917-22.107-22.107v-360.466c0-1.623.19-3.215.529-4.764h68.283c14.256 0 25.854-11.598 25.854-25.854v-68.282c1.549-.339 3.14-.529 4.763-.529h254.439c12.19 0 22.108 9.917 22.108 22.107v99.842c0 4.142 3.357 7.499 7.499 7.499s7.499-3.358 7.499-7.499v-99.843c.001-20.459-16.645-37.105-37.105-37.105h-254.439c-9.911 0-19.23 3.86-26.238 10.868l-77.323 77.323c-7.008 7.008-10.867 16.326-10.867 26.238v360.466c0 20.46 16.645 37.105 37.105 37.105h331.762c20.46 0 37.106-16.646 37.106-37.105v-10.099c0-4.142-3.357-7.5-7.499-7.5zm-303.808-431.692v58.206c0 5.986-4.87 10.856-10.856 10.856h-58.206z"/><path d="m503.982 267.999c5.264-7.727 6.626-17.258 3.737-26.15s-9.594-15.802-18.394-18.958c-5.838-2.094-9.733-7.454-9.919-13.654-.283-9.345-4.784-17.857-12.349-23.353-7.563-5.495-17.051-7.144-26.023-4.526-5.958 1.738-12.255-.31-16.051-5.215-5.721-7.395-14.365-11.636-23.715-11.636-9.349 0-17.994 4.241-23.716 11.636-3.796 4.906-10.097 6.951-16.05 5.215-8.973-2.62-18.46-.969-26.025 4.526-7.564 5.496-12.063 14.007-12.347 23.352-.187 6.2-4.081 11.559-9.92 13.654-8.8 3.156-15.505 10.067-18.393 18.958-2.889 8.892-1.527 18.424 3.737 26.15 3.492 5.127 3.492 11.751 0 16.877-5.264 7.727-6.626 17.258-3.737 26.15 2.888 8.892 9.593 15.802 18.393 18.959 5.839 2.095 9.734 7.454 9.92 13.654.261 8.596 4.2 16.673 10.81 22.158 4.361 3.62 9.6 5.885 15.083 6.642v68.278c0 5.761 3.125 11.086 8.154 13.895 5.023 2.807 11.198 2.682 16.107-.341l27.505-16.932c.448-.277.715-.152.962 0l27.503 16.932c4.907 3.02 11.08 3.15 16.108.34 5.03-2.81 8.154-8.135 8.154-13.895v-68.279c5.481-.756 10.72-3.021 15.081-6.64 6.611-5.485 10.551-13.561 10.812-22.159.186-6.2 4.081-11.56 9.919-13.654 8.801-3.156 15.506-10.067 18.394-18.959 2.889-8.892 1.527-18.423-3.737-26.15-3.496-5.124-3.496-11.748-.003-16.875zm-66.867 173.499-27.504-16.932c-5.113-3.147-11.569-3.152-16.687 0l-27.504 16.931c-.626.381-1.399-.058-1.399-.782v-69.701c5.156-.597 10.268 1.501 13.531 5.718 5.723 7.394 14.367 11.635 23.717 11.635 9.349 0 17.993-4.241 23.714-11.635 3.264-4.218 8.377-6.315 13.532-5.718v69.701c0 .729-.783 1.164-1.4.783zm54.472-148.176c2.632 3.862 3.312 8.625 1.868 13.069s-4.795 7.898-9.194 9.476c-11.682 4.19-19.472 14.913-19.847 27.318-.133 4.361-2.05 8.292-5.397 11.07-3.763 3.123-8.859 4.301-13.781 2.865-11.913-3.476-24.52.62-32.116 10.434-2.859 3.695-7.18 5.815-11.853 5.815-4.672 0-8.993-2.119-11.854-5.815-5.799-7.496-14.52-11.656-23.623-11.656-2.818 0-5.674.399-8.49 1.221-4.97 1.448-10.051.234-13.784-2.865-3.347-2.778-5.264-6.709-5.395-11.069-.376-12.405-8.166-23.128-19.849-27.319-4.398-1.578-7.748-5.031-9.193-9.475-1.444-4.444-.764-9.208 1.868-13.07 6.987-10.257 6.987-23.51 0-33.767-2.632-3.862-3.312-8.626-1.868-13.071 1.444-4.444 4.795-7.898 9.193-9.475 11.683-4.191 19.473-14.914 19.849-27.319.141-4.671 2.389-8.925 6.17-11.671 3.779-2.747 8.519-3.571 13.008-2.263 11.91 3.477 24.52-.62 32.114-10.434 2.86-3.696 7.18-5.816 11.854-5.816 4.673 0 8.993 2.119 11.853 5.815 7.595 9.815 20.199 13.911 32.115 10.435 4.486-1.31 9.226-.485 13.007 2.262 3.781 2.746 6.031 7.001 6.171 11.671.376 12.405 8.166 23.129 19.848 27.319 4.399 1.577 7.749 5.031 9.194 9.475 1.444 4.444.764 9.209-1.868 13.07-6.989 10.258-6.989 23.513 0 33.77z"/><path d="m401.268 213.583c-34.658 0-62.854 28.196-62.854 62.854s28.196 62.854 62.854 62.854c34.657 0 62.853-28.196 62.853-62.854s-28.196-62.854-62.853-62.854zm0 110.71c-26.388 0-47.856-21.468-47.856-47.855s21.468-47.856 47.856-47.856 47.855 21.468 47.855 47.856-21.468 47.855-47.855 47.855z"/></g></g></svg>