<?xml version="1.0" encoding="iso-8859-1"?>
<!-- Generator: Adobe Illustrator 19.0.0, SVG Export Plug-In . SVG Version: 6.00 Build 0)  -->
<svg version="1.1" id="Capa_1" xmlns="http://www.w3.org/2000/svg" xmlns:xlink="http://www.w3.org/1999/xlink" x="0px" y="0px"
	 viewBox="0 0 512 512" style="enable-background:new 0 0 512 512;" xml:space="preserve">
<g>
	<g>
		<path d="M467,51H45C20.187,51,0,71.187,0,96v320c0,24.813,20.187,45,45,45h422c24.813,0,45-20.187,45-45V96
			C512,71.187,491.813,51,467,51z M482,416c0,8.271-6.729,15-15,15H45c-8.271,0-15-6.729-15-15V96c0-8.271,6.729-15,15-15h422
			c8.271,0,15,6.729,15,15V416z"/>
	</g>
</g>
<g>
	<g>
		<path d="M199.202,245.393l-89.095-89.095c-5.858-5.858-15.356-5.858-21.213,0c-5.858,5.858-5.858,15.355,0,21.213L167.382,256
			l-78.488,78.489c-5.858,5.858-5.858,15.355,0,21.213c5.857,5.858,15.356,5.858,21.213-0.001l89.095-89.095
			C205.06,260.748,205.06,251.251,199.202,245.393z"/>
	</g>
</g>
<g>
	<g>
		<path d="M413,330H243c-8.284,0-15,6.716-15,15s6.716,15,15,15h170c8.284,0,15-6.716,15-15S421.284,330,413,330z"/>
	</g>
</g>
<g>
</g>
<g>
</g>
<g>
</g>
<g>
</g>
<g>
</g>
<g>
</g>
<g>
</g>
<g>
</g>
<g>
</g>
<g>
</g>
<g>
</g>
<g>
</g>
<g>
</g>
<g>
</g>
<g>
</g>
</svg>
