<svg width="64" height="32" viewBox="0 0 64 32" fill="none"
    xmlns="http://www.w3.org/2000/svg">
    <path fill-rule="evenodd" clip-rule="evenodd" d="M6.73522 9.63592H6.03628C5.81389 9.63592 5.62327 9.67573 5.49619 9.79515C5.36911 9.87476 5.27381 10.034 5.21027 10.1534C5.14673 10.3126 5.11496 10.4718 5.08319 10.6311L5.08319 10.6311C5.05142 10.8301 5.05142 10.9893 5.05142 11.1087V14.6913C5.05142 15.1291 4.98788 15.4874 4.82903 15.766C4.67018 16.0447 4.47956 16.2835 4.2254 16.4427C4.00301 16.6019 3.71708 16.7214 3.46292 16.801C3.17699 16.8806 2.92283 16.9204 2.70044 16.9204V16.9602C2.89782 16.9602 3.12022 16.9915 3.36764 17.0264L3.46292 17.0398C3.74885 17.0796 4.00301 17.199 4.2254 17.3583C4.44779 17.5175 4.67018 17.7563 4.82903 18.0748C4.98788 18.3932 5.05142 18.8311 5.05142 19.3485V22.732C5.05142 22.8913 5.05142 23.0505 5.08319 23.2097C5.11496 23.4087 5.14673 23.568 5.24204 23.6874C5.30557 23.8466 5.43265 23.966 5.5915 24.0456C5.75035 24.1252 5.94097 24.2049 6.2269 24.2049H6.76699V28.1456H4.51133C4.19363 28.1456 3.87593 28.066 3.55823 27.9466C3.24053 27.8272 2.92283 27.6282 2.6369 27.3893C2.35097 27.1505 2.12858 26.7922 1.93796 26.3942C1.74735 25.9961 1.68381 25.5184 1.68381 24.9612V20.5029C1.68381 20.1447 1.62027 19.866 1.49319 19.667C1.36611 19.468 1.20726 19.3087 1.01664 19.1893C0.826018 19.0699 0.635398 18.9903 0.444779 18.9505C0.254159 18.9107 0.0953097 18.9107 0 18.9107V15.1291H9.29832e-06C0.127086 15.1291 0.254164 15.1291 0.444779 15.0893C0.635398 15.0495 0.826018 15.0097 0.984867 14.8903C1.17549 14.7709 1.30257 14.6515 1.46142 14.4524C1.62027 14.2534 1.65204 14.0146 1.65204 13.6961V9.03884C1.65204 8.48155 1.74735 8.00388 1.90619 7.60583C2.09681 7.20777 2.3192 6.88932 2.60513 6.61068C2.89106 6.37185 3.17699 6.17282 3.52646 6.0534C3.84416 5.93398 4.16186 5.85437 4.47956 5.85437H6.73522V9.63592ZM34.2648 9.63592H34.9637C35.1861 9.63592 35.3767 9.67573 35.5038 9.79515C35.6309 9.87476 35.7262 10.034 35.7897 10.1534C35.8533 10.3126 35.885 10.4718 35.9168 10.6311C35.9486 10.8301 35.9486 10.9893 35.9486 11.1087V14.6913C35.9486 15.1291 36.0121 15.4874 36.171 15.766C36.3298 16.0447 36.5204 16.2835 36.7746 16.4427C36.997 16.6019 37.2829 16.7214 37.5371 16.801C37.823 16.8806 38.0772 16.9204 38.2996 16.9204V16.9602C38.1022 16.9602 37.8798 16.9915 37.6324 17.0264L37.5371 17.0398C37.2512 17.0796 36.997 17.199 36.7746 17.3583C36.5522 17.5175 36.3298 17.7563 36.171 18.0748C36.0121 18.3932 35.9486 18.8311 35.9486 19.3485V22.732C35.9486 22.8913 35.9486 23.0505 35.9168 23.2097C35.885 23.4087 35.8533 23.568 35.758 23.6874C35.6944 23.8466 35.5673 23.966 35.4085 24.0456C35.2496 24.1252 35.059 24.2049 34.7731 24.2049H34.233V28.1456H36.4887C36.8064 28.1456 37.1241 28.066 37.4418 27.9466C37.7595 27.8272 38.0772 27.6282 38.3631 27.3893C38.649 27.1505 38.8714 26.7922 39.062 26.3942C39.2527 25.9961 39.3162 25.5184 39.3162 24.9612V20.5029C39.3162 20.1447 39.3797 19.866 39.5068 19.667C39.6339 19.468 39.7927 19.3087 39.9834 19.1893C40.174 19.0699 40.3646 18.9903 40.5552 18.9505C40.7458 18.9107 40.9047 18.9107 41 18.9107V15.1291C40.8729 15.1291 40.7458 15.1291 40.5552 15.0893C40.3646 15.0495 40.174 15.0097 40.0151 14.8903C39.8245 14.7709 39.6974 14.6515 39.5386 14.4524C39.3797 14.2534 39.348 14.0146 39.348 13.6961V9.03884C39.348 8.48155 39.2527 8.00388 39.0938 7.60583C38.9032 7.20777 38.6808 6.88932 38.3949 6.61068C38.1089 6.37185 37.823 6.17282 37.4735 6.0534C37.1558 5.93398 36.8381 5.85437 36.5204 5.85437H34.2648V9.63592ZM27.237 19.9298L14.0944 6.65048H10.9689V9.8085L24.1115 23.0878L21.7701 25.4535L23.3274 27.0269L26.0221 24.2706L29.5784 27.8081C30.0091 28.2433 30.7049 28.2433 31.1356 27.8081L31.9197 27.0158C32.3504 26.5806 32.3504 25.8776 31.9197 25.4423L28.4077 21.8938L31.1356 19.1375L29.5784 17.564L27.237 19.9298ZM30.0312 9.79734L24.7962 15.0867L21.6707 11.9399L26.9057 6.65048H30.0312V9.79734ZM16.2039 17.4636L19.3294 20.6663L16.8886 23.0878L19.23 25.4535L17.6727 27.0269L14.978 24.2706L11.4217 27.8192C10.991 28.2544 10.2952 28.2544 9.86451 27.8192L9.08037 27.0269C8.64965 26.5917 8.64965 25.8887 9.08037 25.4535L12.5924 21.8938L9.86451 19.1375L11.4217 17.564L13.7631 19.9298L16.2039 17.4636Z" fill="#FFF"/>
</svg>
