<svg id="Capa_1" enable-background="new 0 0 512 512" height="512" viewBox="0 0 512 512" width="512" xmlns="http://www.w3.org/2000/svg"><g><path d="m147.493 140.033v-8.282c0-4.143-3.358-7.5-7.5-7.5s-7.5 3.357-7.5 7.5v8.282c0 4.143 3.358 7.5 7.5 7.5s7.5-3.357 7.5-7.5z"/><path d="m206.242 147.533c4.142 0 7.5-3.357 7.5-7.5v-8.282c0-4.143-3.358-7.5-7.5-7.5s-7.5 3.357-7.5 7.5v8.282c0 4.143 3.358 7.5 7.5 7.5z"/><path d="m201.126 187.28c2.074-3.586.849-8.174-2.736-10.248-3.585-2.071-8.174-.85-10.248 2.736-3.096 5.352-8.854 8.677-15.025 8.677-6.172 0-11.93-3.325-15.027-8.679-2.074-3.586-6.661-4.81-10.247-2.737-3.586 2.074-4.811 6.662-2.737 10.247 5.769 9.974 16.502 16.169 28.011 16.169s22.241-6.194 28.009-16.165z"/><path d="m512 272.566c0-13.271-10.794-24.066-24.062-24.066h-183.92c-4.142 0-7.5 3.357-7.5 7.5s3.358 7.5 7.5 7.5h183.92c4.997 0 9.062 4.067 9.062 9.066v182.226c0 5-4.065 9.067-9.062 9.067h-231.868c-4.997 0-9.062-4.067-9.062-9.067v-182.226c0-4.999 4.066-9.066 9.062-9.066h17.947c4.142 0 7.5-3.357 7.5-7.5s-3.358-7.5-7.5-7.5h-17.947c-13.268 0-24.062 10.796-24.062 24.066v15.485l-9.985-3.996v-34.978c22.916-14.823 38.723-39.737 41.091-68.407h9.376c13.268 0 24.062-10.796 24.062-24.066v-33.135c0-13.271-10.794-24.067-24.062-24.067h-9.062v-50.485c0-26.973-21.939-48.917-48.905-48.917h-82.809c-26.967 0-48.906 21.944-48.906 48.917v50.484h-9.062c-13.268 0-24.062 10.796-24.062 24.066v33.134c0 13.271 10.794 24.067 24.062 24.067h9.377c2.367 28.669 18.173 53.584 41.089 68.407v34.979l-35.35 14.147-15.118.002c-40.662.001-73.744 33.091-73.744 73.764v57.739c0 4.143 3.358 7.5 7.5 7.5s7.5-3.357 7.5-7.5v-57.739c0-32.402 26.353-58.763 58.745-58.763l11.484-.001 27.449 68.638c1.775 4.437 5.41 7.795 9.973 9.212 1.544.479 3.126.716 4.698.716 3.073 0 6.106-.903 8.736-2.656l1.525-1.017 11.095 18.496-9.542 57.268h-56.993c-8.702 0-15.781 7.08-15.781 15.783v16.566c0 .267.027.527.04.791h-50.648c-.431 0-.781-.352-.781-.783v-36.511c0-4.143-3.358-7.5-7.5-7.5s-7.5 3.357-7.5 7.5v36.511c0 8.703 7.079 15.783 15.781 15.783l480.719-.008c8.547 0 15.5-6.953 15.5-15.5v-17.133c0-4.18-1.671-7.972-4.37-10.763 2.749-3.911 4.37-8.671 4.37-13.805zm-304.926 191.293-9.542-57.268 11.095-18.495 1.524 1.016c2.63 1.753 5.663 2.656 8.736 2.656 1.571 0 3.154-.236 4.698-.716 3.495-1.085 6.437-3.316 8.424-6.292v70.031c0 3.207.635 6.267 1.779 9.067h-26.714zm24.934-118.544-12.379 30.955c-.034.086-.139.347-.494.457-.355.112-.587-.045-.663-.096l-35.136-23.429 34.225-54.777 14.448 5.781v41.109zm40.482-230.913c4.997 0 9.062 4.067 9.062 9.067v33.135c0 4.999-4.065 9.066-9.062 9.066h-9.062v-51.268zm-140.776-99.402h82.809c18.695 0 33.905 15.215 33.905 33.917v33.917h-9.061c-4.997 0-9.062-4.067-9.062-9.066v-9.068h.783c4.142 0 7.5-3.357 7.5-7.5s-3.358-7.5-7.5-7.5h-115.937c-4.142 0-7.5 3.357-7.5 7.5s3.358 7.5 7.5 7.5h.78v9.067c0 4.999-4.065 9.066-9.062 9.066h-9.06v-33.917c-.001-18.701 15.209-33.916 33.905-33.916zm-67.03 141.602v-33.134c0-4.999 4.065-9.066 9.062-9.066h9.062v51.268h-9.063c-4.995-.001-9.061-4.068-9.061-9.068zm33.125 16.568-.001-75.336h9.06c13.268 0 24.062-10.796 24.062-24.066v-9.068h84.372v9.067c0 13.271 10.795 24.066 24.062 24.066h9.061v75.336c0 41.538-33.784 75.332-75.309 75.332s-75.307-33.793-75.307-75.331zm75.309 90.332c11.986 0 23.43-2.353 33.905-6.613v30.094l-33.905 54.267-33.906-54.268v-30.093c10.475 4.259 21.92 6.613 33.906 6.613zm-46.018 113.226c-.355-.11-.46-.371-.494-.457l-26.551-66.392 28.62-11.453 34.224 54.777-35.136 23.429c-.076.051-.307.207-.663.096zm46.018-12.31 23.015 15.347-10.699 17.836h-24.63l-10.699-17.837zm-10.208 48.183h20.417l8.54 51.259h-37.498zm-81.522 67.042c0-.432.351-.783.781-.783h149.864c-.005.167-.025.331-.025.5v17.133c0 .169.02.333.025.5h-149.863c-.431 0-.781-.352-.781-.783v-16.567zm415.612 16.849c0 .275-.224.5-.5.5h-240.43-8.562c-.276 0-.5-.225-.5-.5v-17.133c0-.275.224-.5.5-.5h8.562 231.868 8.562c.276 0 .5.225.5.5z"/><path d="m281.694 413.666c0 8.547 6.953 15.5 15.5 15.5h149.62c8.547 0 15.5-6.953 15.5-15.5v-99.966c0-8.547-6.953-15.5-15.5-15.5h-149.62c-8.547 0-15.5 6.953-15.5 15.5zm15-99.966c0-.275.224-.5.5-.5h149.62c.276 0 .5.225.5.5v99.966c0 .275-.224.5-.5.5h-149.62c-.276 0-.5-.225-.5-.5z"/><path d="m355.442 147.533h8.281c.431 0 .781.352.781.783v24.851c0 6.018 3.343 11.427 8.726 14.117 2.251 1.126 4.668 1.68 7.071 1.68 3.341 0 6.655-1.072 9.454-3.172l50.792-38.105c.133-.1.298-.154.465-.154h13.802c22.4 0 40.624-18.228 40.624-40.633v-66.266c0-22.405-18.224-40.634-40.624-40.634h-99.372c-22.4 0-40.624 18.229-40.624 40.634v66.266c0 22.406 18.224 40.633 40.624 40.633zm-25.624-106.899c0-14.135 11.495-25.634 25.624-25.634h99.372c14.129 0 25.624 11.499 25.624 25.634v66.266c0 14.134-11.495 25.633-25.624 25.633h-13.802c-3.395 0-6.758 1.122-9.469 3.158l-50.79 38.102c-.125.094-.386.288-.816.073-.433-.216-.433-.543-.433-.7v-24.852c-.001-8.702-7.081-15.782-15.781-15.782h-8.281c-14.129 0-25.624-11.499-25.624-25.633z"/><path d="m355.442 48.134h99.372c4.142 0 7.5-3.357 7.5-7.5s-3.358-7.5-7.5-7.5h-99.372c-4.142 0-7.5 3.357-7.5 7.5s3.358 7.5 7.5 7.5z"/><path d="m355.442 81.267h99.372c4.142 0 7.5-3.357 7.5-7.5s-3.358-7.5-7.5-7.5h-99.372c-4.142 0-7.5 3.357-7.5 7.5s3.358 7.5 7.5 7.5z"/><path d="m355.442 114.4h33.124c4.142 0 7.5-3.357 7.5-7.5s-3.358-7.5-7.5-7.5h-33.124c-4.142 0-7.5 3.357-7.5 7.5s3.358 7.5 7.5 7.5z"/></g></svg>