<?xml version="1.0" standalone="no"?>
<!DOCTYPE svg PUBLIC "-//W3C//DTD SVG 20010904//EN"
 "http://www.w3.org/TR/2001/REC-SVG-20010904/DTD/svg10.dtd">
<svg version="1.0" xmlns="http://www.w3.org/2000/svg"
 width="36" height="36" viewBox="0 0 528.000000 528.000000"
 preserveAspectRatio="xMidYMid meet">
<metadata>
Created by potrace 1.11, written by Peter Selinger 2001-2013
</metadata>
<g transform="translate(0.000000,528.000000) scale(0.100000,-0.100000)"
fill="#9fef00" stroke="none">
<path d="M2505 5135 c-43 -25 -80 -45 -82 -45 -2 0 -29 -16 -59 -35 -30 -19
-56 -35 -59 -35 -2 0 -59 -32 -127 -72 -180 -105 -241 -139 -260 -145 -10 -3
-18 -9 -18 -14 0 -5 -4 -9 -8 -9 -5 0 -118 -63 -252 -140 -134 -77 -245 -140
-246 -140 -3 0 -203 -116 -224 -130 -8 -6 -22 -13 -30 -17 -8 -4 -48 -26 -88
-50 -40 -24 -77 -43 -82 -43 -6 0 -10 -4 -10 -10 0 -5 -5 -10 -11 -10 -5 0
-54 -25 -107 -57 -53 -31 -152 -87 -219 -125 -98 -56 -129 -79 -161 -121 -21
-29 -44 -65 -49 -82 -6 -18 -9 -490 -8 -1220 2 -1321 -3 -1226 68 -1297 18
-18 138 -94 267 -168 129 -74 242 -139 251 -145 10 -5 52 -30 94 -55 43 -25
94 -55 114 -67 20 -12 43 -25 51 -29 8 -4 51 -29 95 -55 99 -58 633 -368 660
-383 11 -6 23 -15 27 -21 4 -5 8 -6 8 -1 0 5 8 2 18 -6 9 -8 60 -39 112 -69
52 -30 103 -58 112 -64 109 -64 182 -105 188 -105 4 0 13 -7 20 -15 16 -19 83
-38 140 -40 47 -1 96 20 245 104 39 22 81 46 95 53 14 7 27 15 30 18 3 3 23
14 45 25 22 11 47 25 55 31 8 6 40 25 70 41 30 16 217 121 415 233 198 111
376 212 395 222 19 11 62 35 95 54 33 19 68 38 78 41 9 3 17 9 17 14 0 5 5 9
11 9 5 0 53 25 105 55 53 30 98 55 100 55 2 0 21 10 42 23 20 13 62 37 92 54
268 146 299 169 333 243 21 45 21 50 22 1245 1 1355 8 1247 -79 1327 -24 23
-149 101 -277 174 -129 74 -241 138 -249 144 -8 5 -22 13 -30 17 -8 4 -62 34
-120 68 -58 34 -112 64 -120 68 -8 4 -28 16 -45 27 -16 11 -39 24 -50 29 -11
5 -54 29 -95 53 -76 45 -143 84 -215 123 -22 13 -96 55 -165 95 -115 67 -183
106 -235 134 -11 6 -22 13 -25 16 -3 3 -21 13 -40 24 -92 50 -147 81 -170 96
-14 9 -52 32 -85 50 -145 82 -170 92 -231 95 -57 4 -66 1 -139 -40z m170 -566
c17 -10 39 -23 50 -29 11 -6 34 -19 50 -29 17 -10 46 -27 65 -38 71 -41 315
-183 330 -192 13 -9 113 -67 225 -131 17 -10 93 -55 170 -100 77 -46 154 -91
170 -100 17 -9 50 -29 75 -44 25 -14 74 -43 110 -63 61 -35 79 -49 80 -64 0
-4 -107 -69 -237 -144 -131 -76 -249 -145 -263 -154 -14 -8 -34 -21 -45 -27
-11 -6 -87 -50 -170 -99 -295 -172 -336 -196 -362 -209 -13 -6 -23 -14 -23
-18 0 -5 -4 -8 -9 -8 -6 0 -64 -31 -130 -70 -66 -38 -126 -70 -134 -70 -8 0
-25 8 -38 18 -13 10 -37 25 -54 34 -16 8 -120 68 -230 133 -110 64 -220 129
-245 143 -25 14 -72 42 -105 62 -33 20 -67 40 -75 44 -8 4 -24 12 -35 19 -11
7 -78 46 -148 87 -71 41 -145 85 -165 97 -20 12 -46 27 -57 32 -11 6 -49 28
-85 50 -36 22 -80 47 -97 57 -36 18 -40 26 -20 42 13 11 457 272 462 272 2 0
32 18 66 40 35 22 80 48 99 58 19 10 76 42 125 71 50 29 97 56 105 61 8 5 40
24 70 42 30 18 64 37 75 44 159 91 291 170 297 179 4 5 8 6 8 2 0 -5 10 -1 22
7 28 20 36 19 73 -5z m-1675 -1323 c71 -37 127 -70 140 -81 8 -7 20 -14 25
-16 8 -3 263 -151 353 -204 9 -6 37 -22 61 -35 24 -14 51 -30 60 -35 9 -6 45
-27 81 -48 36 -21 72 -42 80 -47 86 -50 131 -76 160 -93 19 -11 47 -27 62 -36
92 -55 193 -111 200 -111 4 0 8 -4 8 -10 0 -5 4 -10 10 -10 5 0 30 -12 55 -27
l45 -28 0 -791 c0 -628 -3 -794 -13 -802 -9 -8 -36 3 -102 41 -50 28 -91 55
-93 59 -2 4 -8 8 -13 8 -5 0 -76 39 -157 86 -81 48 -162 95 -179 105 -131 75
-398 231 -408 239 -5 4 -30 19 -55 32 -58 32 -94 53 -205 118 -49 29 -109 64
-132 77 l-43 24 0 793 c0 436 3 796 7 799 10 10 25 8 53 -7z m3337 -781 c2
-434 -1 -795 -5 -801 -4 -6 -52 -37 -107 -69 -112 -65 -126 -72 -245 -142 -47
-27 -96 -56 -110 -64 -14 -8 -27 -16 -30 -19 -3 -3 -21 -13 -40 -24 -52 -27
-92 -51 -225 -129 -66 -39 -129 -76 -140 -82 -11 -6 -46 -26 -78 -45 -289
-172 -379 -221 -395 -218 -16 3 -17 57 -20 799 l-2 795 92 54 c51 30 102 60
113 66 11 6 39 22 62 37 24 15 47 27 52 27 5 0 14 7 21 15 7 8 21 15 31 15 11
0 19 4 19 8 0 5 19 18 43 31 23 12 56 31 72 41 17 11 37 23 45 27 8 4 98 56
198 115 101 59 186 108 190 108 3 0 13 6 21 14 15 12 47 31 156 91 22 13 85
50 140 83 55 34 109 60 120 59 20 -2 20 -10 22 -792z"/>
</g>
</svg>
