<?xml version="1.0" encoding="iso-8859-1"?>
<!-- Generator: Adobe Illustrator 19.0.0, SVG Export Plug-In . SVG Version: 6.00 Build 0)  -->
<svg version="1.1" id="Layer_1" xmlns="http://www.w3.org/2000/svg" xmlns:xlink="http://www.w3.org/1999/xlink" x="0px" y="0px"
	 viewBox="0 0 512 512" style="enable-background:new 0 0 512 512;" xml:space="preserve">
<g>
	<g>
		<path d="M501.306,226.7L326.791,52.183c-15.398-15.399-41.063-15.399-56.461,0L234.4,88.113
			c-6.844,6.844-11.976,17.109-11.976,27.375s3.422,20.531,11.976,27.375l47.906,47.906H41.063C18.821,190.769,0,209.59,0,231.832
			v49.617c0,20.531,18.82,37.641,41.063,37.641h239.532l-46.196,46.196c-6.844,6.844-11.976,17.109-11.976,29.086
			c0,10.266,3.422,20.531,11.976,29.086l35.93,35.93c6.844,6.844,17.109,11.977,27.375,11.977c10.266,0,20.531-3.422,27.375-11.977
			l174.516-174.517c8.555-8.555,11.977-18.821,11.977-29.086C513.283,245.52,509.861,235.255,501.306,226.7z M477.353,260.918
			L302.837,435.435c-3.422,3.422-5.132,3.422-8.555,0l-35.93-35.93c-1.711-1.711-1.711-3.422-1.711-5.132
			c0-1.711,0-3.422,1.711-5.132l75.281-75.281c5.132-5.132,6.844-11.977,3.422-18.821c-3.422-6.844-8.555-10.266-15.398-10.266
			H41.063c-3.422,0-6.844-1.711-6.844-3.422v-49.617c0-3.422,3.422-6.844,6.844-6.844h284.017c6.844,0,13.688-3.422,15.398-10.266
			c1.711-6.844,1.711-13.688-3.422-18.821l-76.992-76.992c-1.711-1.711-1.711-3.422-1.711-3.422c0-1.711,0-1.711,1.711-3.422
			l35.93-35.929c1.711-1.711,5.132-3.422,8.555,0l174.515,174.515c1.711,1.711,1.711,3.422,1.711,5.132
			C479.064,257.497,479.064,259.208,477.353,260.918z"/>
	</g>
</g>
<g>
</g>
<g>
</g>
<g>
</g>
<g>
</g>
<g>
</g>
<g>
</g>
<g>
</g>
<g>
</g>
<g>
</g>
<g>
</g>
<g>
</g>
<g>
</g>
<g>
</g>
<g>
</g>
<g>
</g>
</svg>
