<svg id="Layer_5" enable-background="new 0 0 64 64" height="512" viewBox="0 0 64 64" width="512" xmlns="http://www.w3.org/2000/svg"><g><circle cx="46" cy="24.999" r="1"/><path d="m57.399 57c1.031-1.108 1.602-2.539 1.602-4.061l-.001-11.877c0-2.879-1.728-5.43-4.4-6.5l-.6-.24v-.854l2.21-1.842c2.408-2.006 3.79-4.956 3.79-8.092 0-5.808-4.726-10.534-10.534-10.534h-1.705c-1.22 0-2.299-.778-2.686-1.936l-.521-1.563-4.207 2.525c-1.448.868-2.347 2.455-2.347 4.143 0 2.459 1.853 4.472 4.233 4.771-.943 1.697-2.233 4.638-2.233 8.06v.721l3.002 1.001c.034 1.128.489 2.184 1.291 2.986.487.487 1.074.828 1.707 1.042v1.601c-3.059 1.5-5 4.583-5 8.035v6.614h-.586l-1.14-1.14c-.546-.547-1.303-.86-2.077-.86-1.119 0-2.126.622-2.627 1.624l-.188.376h-.382c-.002 0-.003 0-.005 0h-12.148l-3-18h-3.033c-2.103 0-3.814 1.711-3.814 3.813 0 .168.011.338.033.504l1.967 14.749v3.12c0 .66.184 1.272.48 1.813h-13.48v6h62v-6h-5.601zm-.994-18.313c.384.712.595 1.523.595 2.375l.001 11.877c0 1.061-.413 2.059-1.2 2.846-.784.783-1.821 1.215-2.917 1.215h-11.884v-4h12v-7.6c0-2.663 1.285-5.159 3.405-6.713zm-16.405-22.518c0-.989.526-1.919 1.375-2.427l2.133-1.28c.832 1.545 2.452 2.538 4.253 2.538h1.705c4.706 0 8.534 3.829 8.534 8.534 0 2.541-1.119 4.93-3.071 6.557l-.929.774v-1.037c0-.263.106-.521.293-.707l.828-.829c.567-.566.879-1.32.879-2.121v-.171c0-1.304-.836-2.416-2-2.829v-1.171c0-1.654-1.346-3-3-3h-7.5-.669c-1.561 0-2.831-1.27-2.831-2.831zm5 14.416v-1.306l-2.978-.993c.208-3.412 1.848-6.266 2.506-7.286h.472 6c.552 0 1 .449 1 1v3h1c.552 0 1 .449 1 1v.171c0 .267-.104.518-.293.707l-.828.829c-.566.566-.879 1.319-.879 2.121v4.758l-3 3-1-1v-1.586h2v-2h-2.586c-.645 0-1.251-.251-1.707-.707-.456-.457-.707-1.063-.707-1.708zm-2 13.8c0-2.643 1.477-4.993 3.796-6.175l2.204 2.204 4.241-4.241.617.247c.463.185.887.433 1.263.731-2.569 1.932-4.121 4.99-4.121 8.249v5.6h-8zm-7.382 8.615.741-1.482c.27-.54 1.074-.669 1.501-.244l1.14 1.14v4.586h-5.005c-.549 0-.995-.449-.995-1v-2c0-.55.447-.998.998-1h1.002zm-19.805-18h1.34l2.666 16h-3.944l-1.86-13.949c-.01-.078-.015-.158-.015-.238 0-1 .813-1.813 1.813-1.813zm.187 20.187v-2.187h15.184c-.112.314-.184.647-.184 1v2c0 .353.072.686.184 1h-13.371c-1 0-1.813-.813-1.813-1.813zm45 5.813h-58v-2h14.813 17.187 26z"/><path d="m5 5h18v2h-18z"/><path d="m21 9h2v2h-2z"/><path d="m5 9h14v2h-14z"/><path d="m5 13h18v2h-18z"/><path d="m4 19h9.697l5.361 3.574c.419.279.905.426 1.407.426 1.397 0 2.535-1.137 2.535-2.535v-1.465h1c1.654 0 3-1.346 3-3v-12c0-1.654-1.346-3-3-3h-20c-1.654 0-3 1.346-3 3v12c0 1.654 1.346 3 3 3zm-1-15c0-.551.448-1 1-1h20c.552 0 1 .449 1 1v12c0 .551-.448 1-1 1h-3v3.465c0 .401-.501.667-.832.445l-5.865-3.91h-10.303c-.552 0-1-.449-1-1z"/><path d="m26 29h8v2h-8z"/><path d="m22 28v4c0 1.304.836 2.416 2 2.829v1.757c0 1.331 1.083 2.414 2.414 2.414.637 0 1.259-.258 1.707-.707l3.293-3.293h3.586c1.654 0 3-1.346 3-3v-4c0-1.654-1.346-3-3-3h-10c-1.654 0-3 1.346-3 3zm14 0v4c0 .551-.448 1-1 1h-4.414l-3.88 3.879c-.236.237-.707.045-.706-.293v-3.586h-1c-.552 0-1-.449-1-1v-4c0-.551.448-1 1-1h10c.552 0 1 .449 1 1z"/></g></svg>