<svg id="Capa_1" enable-background="new 0 0 512 512" height="512" viewBox="0 0 512 512" width="512" xmlns="http://www.w3.org/2000/svg"><path d="m467 81.055h-116.926v-34.165c0-13.699-11.145-24.843-24.843-24.843h-138.461c-13.699 0-24.843 11.145-24.843 24.843v34.166h-116.927c-24.813 0-45 20.187-45 45v318.898c0 24.813 20.187 45 45 45h422c24.813 0 45-20.187 45-45v-318.899c0-24.813-20.187-45-45-45zm-146.926-29.009v29.009h-128.148v-29.009zm146.926 59.009c8.271 0 15 6.729 15 15v91.194h-132.207c-2.447-15.082-8.493-29.279-17.841-41.691-12.061-16.014-29.22-28.026-48.318-33.823-4.546-1.379-9.477-.524-13.292 2.305s-6.065 7.299-6.065 12.049v46.9l-8.277 3.561-8.277-3.562v-46.9c0-4.75-2.25-9.22-6.065-12.049-3.816-2.83-8.747-3.684-13.292-2.305-19.098 5.797-36.258 17.81-48.318 33.823-9.348 12.413-15.394 26.609-17.841 41.691h-132.207v-91.194c0-8.271 6.729-15 15-15h422zm-145.97 121.62c0 35.857-29.172 65.03-65.03 65.03s-65.03-29.172-65.03-65.03c0-21.417 10.209-40.716 26.752-52.666v32.854c0 5.993 3.566 11.41 9.071 13.778l23.277 10.016c3.784 1.629 8.073 1.629 11.857 0l23.277-10.016c5.505-2.368 9.071-7.786 9.071-13.778v-32.853c16.545 11.949 26.755 31.248 26.755 52.665zm-92.712 90.913c8.763 2.673 18.057 4.117 27.682 4.117s18.919-1.443 27.682-4.117v45.729h-55.364zm-198.318 121.366v-197.704h132.087c3.82 24.716 17.202 46.312 36.23 60.892v76.176c0 8.284 6.716 15 15 15h85.364c8.284 0 15-6.716 15-15v-76.176c19.029-14.579 32.41-36.176 36.23-60.892h132.089v197.704c0 8.271-6.729 15-15 15h-422c-8.271 0-15-6.729-15-15z"/></svg>